<svg width="18" height="27" viewBox="0 0 18 27" fill="none" xmlns="http://www.w3.org/2000/svg">
<path d="M0 18.2001C0 23.0376 3.9125 26.9501 8.75 26.9501C13.5875 26.9501 17.5 23.0376 17.5 18.2001V13.2001H0V18.2001ZM13.9 3.66256L16.525 1.03756L15.5 6.10352e-05L12.625 2.88756C11.45 2.30006 10.15 1.95006 8.75 1.95006C7.35 1.95006 6.05 2.30006 4.8875 2.88756L2 6.10352e-05L0.975 1.03756L3.6 3.66256C1.425 5.25006 0 7.80006 0 10.7001V11.9501H17.5V10.7001C17.5 7.80006 16.075 5.25006 13.9 3.66256ZM5 9.45006C4.3125 9.45006 3.75 8.88756 3.75 8.20006C3.75 7.51256 4.3125 6.95006 5 6.95006C5.6875 6.95006 6.25 7.51256 6.25 8.20006C6.25 8.88756 5.6875 9.45006 5 9.45006ZM12.5 9.45006C11.8125 9.45006 11.25 8.88756 11.25 8.20006C11.25 7.51256 11.8125 6.95006 12.5 6.95006C13.1875 6.95006 13.75 7.51256 13.75 8.20006C13.75 8.88756 13.1875 9.45006 12.5 9.45006Z" fill="#5AB2F1"/>
</svg>
